<svg xmlns="http://www.w3.org/2000/svg" viewBox="0 0 32 32">
  <defs>
    <linearGradient id="bambooGradient" x1="0%" y1="0%" x2="100%" y2="100%">
      <stop offset="0%" style="stop-color:#16a34a;stop-opacity:1" />
      <stop offset="50%" style="stop-color:#22c55e;stop-opacity:1" />
      <stop offset="100%" style="stop-color:#4ade80;stop-opacity:1" />
    </linearGradient>
  </defs>
  
  <!-- Background circle -->
  <circle cx="16" cy="16" r="16" fill="#f0fdf4"/>
  
  <!-- Bamboo stems -->
  <rect x="10" y="6" width="2" height="20" fill="url(#bambooGradient)" rx="1"/>
  <rect x="14" y="5" width="2.5" height="22" fill="url(#bambooGradient)" rx="1.25"/>
  <rect x="19" y="7" width="2" height="18" fill="url(#bambooGradient)" rx="1"/>
  
  <!-- Bamboo nodes -->
  <ellipse cx="11" cy="12" rx="1.5" ry="0.5" fill="#15803d"/>
  <ellipse cx="11" cy="18" rx="1.5" ry="0.5" fill="#15803d"/>
  <ellipse cx="15.25" cy="11" rx="1.75" ry="0.5" fill="#15803d"/>
  <ellipse cx="15.25" cy="17" rx="1.75" ry="0.5" fill="#15803d"/>
  <ellipse cx="15.25" cy="23" rx="1.75" ry="0.5" fill="#15803d"/>
  <ellipse cx="20" cy="13" rx="1.5" ry="0.5" fill="#15803d"/>
  <ellipse cx="20" cy="19" rx="1.5" ry="0.5" fill="#15803d"/>
  
  <!-- Bamboo leaves -->
  <path d="M22 10 Q25 9 26 11 Q25 13 22 12 Z" fill="#4ade80"/>
  <path d="M23 16 Q26 15 27 17 Q26 19 23 18 Z" fill="#22c55e"/>
  <path d="M8 14 Q5 13 4 15 Q5 17 8 16 Z" fill="#22c55e"/>
</svg>