<svg xmlns="http://www.w3.org/2000/svg" viewBox="0 0 200 60" class="bamboo-logo">
  <defs>
    <linearGradient id="bambooGradient" x1="0%" y1="0%" x2="100%" y2="100%">
      <stop offset="0%" style="stop-color:#16a34a;stop-opacity:1" />
      <stop offset="50%" style="stop-color:#22c55e;stop-opacity:1" />
      <stop offset="100%" style="stop-color:#4ade80;stop-opacity:1" />
    </linearGradient>
    <linearGradient id="textGradient" x1="0%" y1="0%" x2="100%" y2="0%">
      <stop offset="0%" style="stop-color:#1f2937;stop-opacity:1" />
      <stop offset="100%" style="stop-color:#16a34a;stop-opacity:1" />
    </linearGradient>
  </defs>
  
  <!-- Bamboo stems -->
  <rect x="8" y="10" width="3" height="40" fill="url(#bambooGradient)" rx="1.5"/>
  <rect x="14" y="8" width="3.5" height="44" fill="url(#bambooGradient)" rx="1.75"/>
  <rect x="21" y="12" width="3" height="36" fill="url(#bambooGradient)" rx="1.5"/>
  
  <!-- Bamboo nodes -->
  <ellipse cx="9.5" cy="25" rx="2" ry="1" fill="#15803d"/>
  <ellipse cx="9.5" cy="35" rx="2" ry="1" fill="#15803d"/>
  <ellipse cx="15.75" cy="22" rx="2.25" ry="1" fill="#15803d"/>
  <ellipse cx="15.75" cy="32" rx="2.25" ry="1" fill="#15803d"/>
  <ellipse cx="15.75" cy="42" rx="2.25" ry="1" fill="#15803d"/>
  <ellipse cx="22.5" cy="24" rx="2" ry="1" fill="#15803d"/>
  <ellipse cx="22.5" cy="34" rx="2" ry="1" fill="#15803d"/>
  
  <!-- Bamboo leaves -->
  <path d="M26 18 Q32 16 34 20 Q32 24 26 22 Z" fill="#4ade80"/>
  <path d="M28 28 Q34 26 36 30 Q34 34 28 32 Z" fill="#22c55e"/>
  <path d="M25 38 Q31 36 33 40 Q31 44 25 42 Z" fill="#4ade80"/>
  <path d="M6 20 Q2 18 0 22 Q2 26 6 24 Z" fill="#22c55e"/>
  <path d="M4 30 Q0 28 -2 32 Q0 36 4 34 Z" fill="#4ade80"/>
  
  <!-- Company name -->
  <text x="45" y="25" font-family="Inter, sans-serif" font-size="14" font-weight="700" fill="url(#textGradient)">Bamboo</text>
  <text x="45" y="40" font-family="Inter, sans-serif" font-size="12" font-weight="500" fill="#6b7280">Innovasia</text>
  
  <!-- Decorative elements -->
  <circle cx="38" cy="15" r="1" fill="#4ade80" opacity="0.6"/>
  <circle cx="42" cy="45" r="1.5" fill="#22c55e" opacity="0.4"/>
  <circle cx="35" cy="50" r="1" fill="#16a34a" opacity="0.5"/>
</svg>